<?xml version="1.0" encoding="utf-8"?><svg viewBox="0 0 256 256" xmlns="http://www.w3.org/2000/svg" xmlns:xlink="http://www.w3.org/1999/xlink"><style>:root>svg{display:none}:root>svg:target{display:block}</style><svg fill="none" viewBox="0 0 16 16" id="arrow-left" xmlns="http://www.w3.org/2000/svg"><path d="M12.667 8H3.333M8 12.667L3.333 8 8 3.333" stroke="#000" stroke-width="1.333" stroke-linecap="round" stroke-linejoin="round"/></svg><svg fill="none" viewBox="0 0 16 16" id="arrow-right" xmlns="http://www.w3.org/2000/svg"><path d="M3.333 8h9.334M8 12.667L12.667 8 8 3.333" stroke="#000" stroke-width="1.333" stroke-linecap="round" stroke-linejoin="round"/></svg><svg fill="none" viewBox="0 0 30 30" id="close" xmlns="http://www.w3.org/2000/svg"><path d="M8 8l14 14M8 22L22 8" stroke-width="2"/></svg><svg viewBox="0 0 256 256" id="footer-svg" xmlns="http://www.w3.org/2000/svg"><g stroke-width="0" stroke-miterlimit="10" fill="none" style="stroke:none;stroke-width:0;stroke-dasharray:none;stroke-linecap:butt;stroke-linejoin:miter;stroke-miterlimit:10;fill:none;fill-rule:nonzero;opacity:1"><path d="M211.772 181.075c-73.846-5.52-93.698-5.52-167.544 0 6.075 6.792 12.833 13.5 20.353 20.057h-.028c1.252 1.092 2.572 2.173 3.866 3.257.596.499 1.165 1.006 1.77 1.504h.014c16.076 13.231 35.223 25.779 57.794 37.063 22.572-11.287 41.718-23.832 57.798-37.063h.014c.604-.498 1.173-1.003 1.77-1.504 1.294-1.084 2.61-2.165 3.865-3.257h-.028c7.523-6.557 14.281-13.265 20.356-20.057z" fill="gold"/><path d="M9.596 124.891c.129.359.244.712.378 1.07h-.008c.03.081.064.162.095.244.126.339.235.672.364 1.01h.034c4.512 11.767 10.9 23.788 19.317 35.736-.017 0-.034.003-.05.003.745 1.059 1.543 2.117 2.324 3.176.104.14.2.283.303.423h.008c4.89 6.604 10.43 13.167 16.606 19.642h158.069c6.176-6.473 11.716-13.038 16.606-19.642h.008c.107-.146.205-.288.311-.434.776-1.056 1.571-2.11 2.316-3.165-.017 0-.033-.003-.05-.003 8.416-11.948 14.802-23.97 19.317-35.738h.034c.128-.339.238-.672.364-1.011.03-.081.064-.163.095-.244h-.008c.134-.358.246-.714.378-1.07-116.783-11.396-120.031-11.396-236.81.003z" fill="gold"/><path d="M3.314 68.183a93.745 93.745 0 00-1.32 18.326c-.01 0-.019.003-.03.003.006.26.028.53.04.792.005.194-.004.381.005.575h.022c.457 12.026 3.02 24.876 7.943 38.085h-.008c.03.081.064.162.095.243.126.34.235.673.364 1.012h.034c.1.257.215.52.316.781h234.45c.1-.26.215-.524.316-.784h.034c.129-.34.238-.672.364-1.011.03-.082.064-.163.095-.244h-.008c4.924-13.209 7.486-26.056 7.943-38.085h.022c.009-.194 0-.381.006-.574.008-.264.03-.53.039-.793-.011 0-.02-.003-.03-.003.156-6.386-.314-12.505-1.32-18.325-125.115-7.924-124.257-7.924-249.372.002z" fill="#0057b8"/><path d="M252.955 69.802c-1.174-7.663-3.285-14.81-6.305-21.263h.073C229.918 12.557 185.708-2 128 33.249 70.292-2 26.084 12.557 9.28 48.539h.073c-3.02 6.453-5.132 13.6-6.305 21.263h249.907z" fill="#0057b8"/></g></svg><svg fill="none" viewBox="0 0 24 24" id="logo" xmlns="http://www.w3.org/2000/svg"><path d="M19.82 2H4.18A2.18 2.18 0 002 4.18v15.64A2.18 2.18 0 004.18 22h15.64A2.18 2.18 0 0022 19.82V4.18A2.18 2.18 0 0019.82 2zM7 2v20M17 2v20M2 12h20M2 7h5M2 17h5M17 17h5M17 7h5" stroke="#818181" stroke-width="2" stroke-linecap="round" stroke-linejoin="round"/></svg><svg fill="none" viewBox="0 0 12 12" id="search" xmlns="http://www.w3.org/2000/svg"><path d="M5.5 9.5a4 4 0 100-8 4 4 0 000 8zM10.5 10.5L8.325 8.325" stroke="#fff" stroke-linecap="round" stroke-linejoin="round"/></svg></svg>